<svg id="visual" viewBox="0 0 960 540" width="960" height="540" xmlns="http://www.w3.org/2000/svg" xmlns:xlink="http://www.w3.org/1999/xlink" version="1.1"><rect x="0" y="0" width="960" height="540" fill="#CAF0F8"></rect><path d="M307 540L300.3 510C293.7 480 280.3 420 287.3 360C294.3 300 321.7 240 336.7 180C351.7 120 354.3 60 355.7 30L357 0L960 0L960 30C960 60 960 120 960 180C960 240 960 300 960 360C960 420 960 480 960 510L960 540Z" fill="#ade8f4"></path><path d="M236 540L260.2 510C284.3 480 332.7 420 365.8 360C399 300 417 240 429 180C441 120 447 60 450 30L453 0L960 0L960 30C960 60 960 120 960 180C960 240 960 300 960 360C960 420 960 480 960 510L960 540Z" fill="#9de1ef"></path><path d="M414 540L413.3 510C412.7 480 411.3 420 417.7 360C424 300 438 240 457.7 180C477.3 120 502.7 60 515.3 30L528 0L960 0L960 30C960 60 960 120 960 180C960 240 960 300 960 360C960 420 960 480 960 510L960 540Z" fill="#8cd9eb"></path><path d="M429 540L449.8 510C470.7 480 512.3 420 537 360C561.7 300 569.3 240 554 180C538.7 120 500.3 60 481.2 30L462 0L960 0L960 30C960 60 960 120 960 180C960 240 960 300 960 360C960 420 960 480 960 510L960 540Z" fill="#7bd2e7"></path><path d="M660 540L646.8 510C633.7 480 607.3 420 607 360C606.7 300 632.3 240 641.3 180C650.3 120 642.7 60 638.8 30L635 0L960 0L960 30C960 60 960 120 960 180C960 240 960 300 960 360C960 420 960 480 960 510L960 540Z" fill="#68cae3"></path><path d="M643 540L661.8 510C680.7 480 718.3 420 714.2 360C710 300 664 240 642.2 180C620.3 120 622.7 60 623.8 30L625 0L960 0L960 30C960 60 960 120 960 180C960 240 960 300 960 360C960 420 960 480 960 510L960 540Z" fill="#53c3df"></path><path d="M766 540L758 510C750 480 734 420 735.2 360C736.3 300 754.7 240 767.3 180C780 120 787 60 790.5 30L794 0L960 0L960 30C960 60 960 120 960 180C960 240 960 300 960 360C960 420 960 480 960 510L960 540Z" fill="#39bbdc"></path><path d="M802 540L803.2 510C804.3 480 806.7 420 813.8 360C821 300 833 240 838 180C843 120 841 60 840 30L839 0L960 0L960 30C960 60 960 120 960 180C960 240 960 300 960 360C960 420 960 480 960 510L960 540Z" fill="#00b4d8"></path></svg>